<?xml version="1.0" encoding="utf-8"?>
<svg xmlns="http://www.w3.org/2000/svg" version="1.1" viewBox="120 120 270 270">
<path d="M 242.32 209.39 C 242.33 182.46 242.21 155.54 242.29 128.61 C 245.44 128.70 248.59 128.68 251.75 128.62 C 251.95 154.93 251.74 181.25 251.88 207.56 C 254.77 207.35 257.67 207.34 260.57 207.52 C 260.59 181.19 260.50 154.86 260.67 128.54 C 263.90 128.59 267.13 128.58 270.35 128.54 C 270.49 155.47 270.29 182.41 270.39 209.35 C 271.62 209.82 272.85 210.31 274.10 210.78 C 275.56 211.43 277.02 212.07 278.49 212.70 C 278.40 190.00 278.50 167.30 278.45 144.59 C 281.68 144.66 284.92 144.65 288.15 144.67 C 288.16 169.42 288.27 194.17 288.19 218.91 C 289.92 220.80 291.85 222.50 293.65 224.32 C 317.61 224.28 341.57 224.36 365.53 224.28 C 365.55 227.46 365.56 230.64 365.56 233.83 C 343.40 233.90 321.25 233.93 299.10 233.78 C 300.18 236.61 301.26 239.46 302.00 242.41 C 329.24 242.43 356.47 242.49 383.71 242.38 C 383.61 245.54 383.59 248.69 383.71 251.85 C 357.20 251.88 330.70 251.81 304.19 251.91 C 304.20 254.67 304.20 257.44 304.17 260.21 C 330.68 260.13 357.19 260.21 383.71 260.17 C 383.59 263.39 383.56 266.61 383.65 269.84 C 356.40 269.78 329.15 269.81 301.90 269.85 C 301.12 272.84 299.92 275.69 298.76 278.54 C 320.99 278.58 343.22 278.67 365.44 278.53 C 365.43 281.67 365.42 284.80 365.43 287.94 C 341.94 287.84 318.44 287.87 294.94 287.87 C 291.84 287.49 289.49 290.56 288.31 293.03 C 288.22 317.16 288.20 341.30 288.22 365.44 C 284.97 365.44 281.72 365.43 278.47 365.46 C 278.52 343.02 278.49 320.58 278.59 298.13 C 275.85 299.29 273.13 300.49 270.39 301.65 C 270.35 328.63 270.52 355.61 270.46 382.59 C 267.17 382.70 263.89 382.77 260.60 382.67 C 260.63 356.38 260.62 330.08 260.61 303.78 C 257.66 303.83 254.71 303.82 251.76 303.82 C 251.88 330.12 251.87 356.42 251.86 382.71 C 248.66 382.82 245.47 382.86 242.28 382.78 C 242.29 355.74 242.30 328.70 242.35 301.67 C 239.58 300.56 236.80 299.40 233.83 298.96 C 234.16 321.10 233.48 343.27 234.20 365.40 C 230.74 365.44 227.28 365.43 223.83 365.43 C 223.80 341.02 224.03 316.60 223.81 292.18 C 222.46 290.89 221.22 289.47 219.79 288.26 C 199.23 287.36 178.62 288.54 158.06 287.89 C 154.10 287.85 150.15 288.22 146.19 288.15 C 146.17 284.93 146.19 281.71 146.27 278.49 C 168.74 278.48 191.22 278.79 213.69 278.48 C 212.24 275.72 211.09 272.82 210.18 269.85 C 182.89 269.76 155.61 269.78 128.32 269.84 C 128.41 266.61 128.43 263.38 128.38 260.15 C 154.89 260.20 181.40 260.17 207.90 260.22 C 207.88 257.43 207.88 254.64 207.91 251.85 C 181.40 251.88 154.89 251.86 128.38 251.78 C 128.48 248.66 128.49 245.54 128.43 242.42 C 155.66 242.42 182.89 242.43 210.12 242.43 C 210.64 240.56 211.24 238.72 211.82 236.87 C 212.20 235.85 212.55 234.82 212.91 233.79 C 190.49 233.94 168.07 233.85 145.65 233.80 C 145.79 230.64 145.77 227.48 145.82 224.32 C 170.18 224.28 194.53 224.40 218.89 224.22 C 220.49 222.46 222.16 220.76 223.86 219.10 C 223.79 194.27 223.89 169.44 223.87 144.61 C 227.20 144.58 230.52 144.61 233.84 144.51 C 233.95 162.67 233.86 180.83 233.90 199.00 C 233.95 203.56 233.65 208.15 234.33 212.69 C 235.48 212.01 236.63 211.34 237.79 210.67 C 239.31 210.26 240.81 209.81 242.32 209.39 Z" fill="#030304" opacity="1.00" stroke="#030304" stroke-width="0.25"/>
<path d="M 247.91 217.97 C 256.57 216.44 265.87 217.15 273.77 221.26 C 284.05 226.44 291.40 236.62 293.89 247.78 C 295.32 254.91 294.69 262.40 292.34 269.27 C 291.50 271.10 290.64 272.92 289.73 274.71 C 286.37 281.05 281.07 286.23 274.87 289.79 C 273.27 290.56 271.66 291.32 270.06 292.07 C 261.07 295.30 250.98 295.36 242.04 291.92 C 231.10 287.53 222.15 277.98 219.23 266.47 C 216.76 258.50 217.29 249.85 220.05 242.02 C 220.78 240.39 221.48 238.74 222.19 237.10 C 227.36 227.32 237.07 220.11 247.91 217.97 Z" fill="#ffffff" opacity="1.00" stroke="#ffffff" stroke-width="0.25"/>
</svg>